<svg version="1.1" xmlns="http://www.w3.org/2000/svg" xmlns:xlink="http://www.w3.org/1999/xlink" x="0px" y="0px" viewBox="0 0 1000 1000" enable-background="new 0 0 1000 1000" xml:space="preserve">
<g><g transform="translate(0.000000,511.000000) scale(0.100000,-0.100000)"><path d="M739.7,4997.2c-248.2-64-458-232.8-568-460.6L100,4393.3V107.4v-4285.9l56.3-120.3c79.3-171.4,235.4-330.1,409.4-419.6l148.4-74.2H5000h4285.9l127.9,64c163.8,79.3,342.9,258.4,422.2,422.2l64,127.9V107.4v4285.9l-74.2,148.4c-89.6,174-248.2,330.1-419.6,409.4l-120.3,56.3l-4234.7,5.1C2722.7,5012.6,783.2,5007.4,739.7,4997.2z M9273.1,4552c76.8-40.9,130.5-94.7,171.4-171.4l58.8-110v-4158c0-4155.4,0-4160.5-53.7-4268c-41-89.6-179.1-214.9-230.3-214.9c-5.1,0-10.2,181.7-12.8,404.3c0,312.2-12.8,460.6-56.3,665.3C8833-1827,7876-115.2,7177.5,227.7c-296.8,145.8-637.1,74.2-980-207.3c-353.1-286.6-754.8-893-1248.7-1883.2c-102.3-204.7-189.3-376.2-191.9-378.7c-5.1-5.1-112.6,64-238,153.5c-616.7,445.2-1131,593.6-1568.5,455.4c-509.2-158.6-808.6-483.6-1479-1609.4c-335.2-560.4-585.9-939.1-719-1084.9c-33.3-38.4-148.4,58.8-204.7,171.4c-51.2,107.5-51.2,127.9-51.2,4268v4158l58.8,110c40.9,76.8,94.7,130.5,171.4,171.4l110,58.8H5000h4163.1L9273.1,4552z M7016.3-140.8c278.9-130.5,731.8-747.1,1102.8-1489.2c473.4-954.4,708.8-1788.6,688.3-2441.1c-2.5-161.2-15.3-301.9-23-309.6c-7.7-7.7-1061.9-12.8-2343.8-10.2l-2328.5,7.7l125.4,217.5c69.1,120.3,411.9,788.1,759.9,1484.1c348,696,708.8,1394.5,803.4,1553.2c327.5,547.6,591.1,849.5,849.5,969.8C6803.9-87.1,6890.9-81.9,7016.3-140.8z M3605.5-2041.9c81.9-28.2,225.2-92.1,317.3-143.3c179.1-99.8,560.4-365.9,614.1-429.8c28.1-33.3-17.9-138.2-266.1-621.8c-161.2-319.8-373.6-708.8-468.2-864.8l-171.4-281.5l-1197.5-7.7c-657.6-2.6-1194.9,0-1194.9,5.1c0,5.1,79.3,130.5,176.6,276.3c94.7,143.3,281.5,447.8,412,672.9c532.2,916,844.4,1274.3,1223.1,1409.9C3191-1975.4,3434-1983.1,3605.5-2041.9z"/><path d="M6937,4037.7c-214.9-79.3-429.9-281.5-468.2-442.7c-15.4-56.3-23-58.8-135.6-40.9c-429.9,74.2-882.8-76.8-1054.2-348c-130.5-204.7-87-409.4,112.6-527.1l112.6-64h1348.5c813.7,0,1366.4,10.2,1394.5,25.6c25.6,12.8,71.6,84.4,104.9,156.1c74.2,176.6,79.3,394,10.2,511.7c-61.4,104.9-222.6,202.1-335.2,202.1c-74.2,0-84.4,10.2-112.6,104.9c-46.1,145.8-199.6,312.2-360.8,381.3C7384.8,4070.9,7077.7,4091.4,6937,4037.7z M7407.8,3840.6c191.9-66.5,330.1-222.6,330.1-378.7c0-110,58.8-156.1,204.7-156.1c161.2,0,199.6-15.4,245.6-107.5c41-81.9,33.3-197-20.5-317.3l-28.1-61.4h-1305c-1307.5,0-1307.5,0-1366.4,56.3c-84.4,79.3-76.8,179.1,20.5,276.3c212.4,212.4,611.6,284,936.5,168.9c112.6-38.4,186.8-17.9,186.8,56.3c0,23,28.1,102.3,61.4,174c64,135.6,189.3,253.3,314.7,291.7C7093,3873.9,7308,3873.9,7407.8,3840.6z"/><path d="M3503.1,2425.7c-557.8-138.2-933.9-703.7-839.3-1258.9c84.4-486.2,452.9-854.6,939.1-939.1c460.6-79.3,957,179.1,1166.8,603.9c163.8,332.6,163.8,675.5,0,1008.2C4542,2300.3,4004.6,2548.5,3503.1,2425.7z M4160.7,2169.8c214.9-102.3,414.5-327.5,481-542.5c66.5-214.9,64-371-2.6-588.5c-46-151-76.8-197-225.2-345.4c-148.4-148.4-194.5-179.1-345.4-225.2c-217.5-66.5-373.6-69.1-588.5-2.6c-214.9,66.5-440.1,266.1-542.5,481c-230.3,483.6,17.9,1069.6,529.7,1261.5C3666.9,2279.8,3963.7,2264.5,4160.7,2169.8z"/></g></g>
</svg>