<?xml version="1.0" encoding="iso-8859-1"?>
<!-- Generator: Adobe Illustrator 19.0.0, SVG Export Plug-In . SVG Version: 6.00 Build 0)  -->
<svg version="1.1" id="Layer_1" xmlns="http://www.w3.org/2000/svg" xmlns:xlink="http://www.w3.org/1999/xlink" x="0px" y="0px"
	 viewBox="0 0 512.003 512.003" style="enable-background:new 0 0 512.003 512.003;" xml:space="preserve">
<g>
	<g>
		<g>
			<path d="M463.49,313.949c2.705-11.332,4.497-23.014,5.299-34.961c12.604,3.866,22.477,9.472,27.989,16.444
				c2.927,3.686,8.294,4.318,11.981,1.391c3.703-2.918,4.326-8.286,1.399-11.989c-9.114-11.52-24.26-18.901-40.9-23.356
				c-0.614-43.179-14.071-83.294-36.779-116.659l36.548-99.2c1.152-3.123,0.384-6.639-1.971-8.986
				c-2.364-2.355-5.871-3.115-8.986-1.971L351.584,73.898c-28.774-14.49-61.227-22.699-95.582-22.699s-66.807,8.209-95.582,22.699
				L53.932,34.661c-3.132-1.143-6.639-0.384-8.986,1.971c-2.355,2.347-3.123,5.862-1.98,8.986l36.557,99.2
				C56.8,178.209,43.343,218.35,42.745,261.554c-16.649,4.412-31.787,11.767-40.9,23.279c-2.927,3.703-2.304,9.071,1.391,11.989
				c3.686,2.927,9.062,2.304,11.989-1.391c5.504-6.963,15.394-12.527,27.989-16.375c0.811,11.93,2.603,23.586,5.291,34.901
				c-18.338,5.555-34.816,15.352-46.711,30.677c-2.893,3.721-2.21,9.079,1.51,11.972c1.553,1.212,3.396,1.792,5.222,1.792
				c2.552,0,5.069-1.135,6.75-3.302c7.629-9.83,20.983-18.739,37.948-24.397c27.913,85.333,108.237,147.166,202.778,147.166
				S430.867,416.033,458.779,330.7c16.964,5.649,30.319,14.566,37.948,24.397c1.681,2.167,4.198,3.302,6.741,3.302
				c1.835,0,3.678-0.58,5.231-1.792c3.721-2.893,4.395-8.252,1.51-11.972C498.306,329.3,481.836,319.504,463.49,313.949z
				 M290.135,255.999c0,14.362-14.993,25.6-34.133,25.6s-34.133-11.238-34.133-25.6c0-14.353,14.993-25.6,34.133-25.6
				S290.135,241.646,290.135,255.999z M104.04,114.994c-1.058,1.075-2.074,2.167-3.106,3.26c-2.577,2.731-5.086,5.521-7.518,8.388
				c-0.555,0.64-1.161,1.237-1.707,1.894L65.376,57.07l75.588,27.844c-0.597,0.384-1.152,0.836-1.749,1.22
				c-3.772,2.483-7.484,5.035-11.076,7.74c-0.862,0.649-1.681,1.331-2.526,1.988c-3.046,2.355-6.025,4.804-8.934,7.322
				c-1.015,0.879-2.048,1.741-3.046,2.637C110.338,108.782,107.138,111.845,104.04,114.994z M170.848,238.932
				c-1.954,0-3.9-0.666-5.487-1.988l-36.164-30.319c-8.55-7.219-14.404-16.367-16.964-26.479
				c-1.707-6.716-1.348-11.204-1.067-13.039c1.98-19.012,17.118-33.314,35.345-33.314c10.223,0,18.483,4.898,24.371,11.145
				c6.118-6.4,14.541-11.145,24.294-11.145c18.236,0,33.365,14.302,35.345,33.314c0.29,1.835,0.64,6.315-1.058,13.039
				c-2.569,10.12-8.422,19.26-16.947,26.462l-36.19,30.336C174.739,238.267,172.793,238.932,170.848,238.932z M332.315,344.182
				c-12.612,35.618-41.148,56.883-76.314,56.883c-35.174,0-63.701-21.265-76.314-56.883c-1.169-3.319-0.188-7.006,2.466-9.31
				c2.662-2.295,6.46-2.714,9.566-1.092c40.585,21.444,86.281,21.41,128.691-0.06c3.106-1.579,6.869-1.101,9.489,1.203
				S333.476,340.888,332.315,344.182z M400.13,180.146c-2.569,10.12-8.422,19.26-16.947,26.462l-36.19,30.336
				c-1.587,1.323-3.533,1.988-5.478,1.988c-1.954,0-3.9-0.666-5.487-1.988l-36.164-30.319c-8.55-7.219-14.404-16.367-16.964-26.479
				c-1.707-6.716-1.348-11.204-1.067-13.039c1.98-19.012,17.118-33.314,35.345-33.314c10.223,0,18.483,4.898,24.371,11.145
				c6.118-6.4,14.541-11.145,24.294-11.145c18.236,0,33.365,14.302,35.345,33.314C401.478,168.942,401.828,173.422,400.13,180.146z
				 M418.681,126.744c-2.475-2.918-5.026-5.76-7.654-8.533c-1.007-1.067-2.005-2.142-3.038-3.183
				c-3.115-3.174-6.332-6.255-9.643-9.224c-0.973-0.879-1.98-1.715-2.97-2.577c-2.953-2.551-5.973-5.035-9.062-7.424
				c-0.811-0.631-1.596-1.289-2.423-1.903c-3.61-2.714-7.33-5.282-11.11-7.765c-0.589-0.393-1.143-0.836-1.741-1.22l75.58-27.844
				l-26.325,71.475C419.773,127.922,419.202,127.359,418.681,126.744z"/>
			<path d="M213.651,169.7c-0.947-9.685-7.544-18.842-18.475-18.842c-7.458,0-13.807,6.537-16.555,12.604
				c-1.382,3.055-4.429,5.009-7.774,5.009c-3.354,0-6.391-1.954-7.774-5c-2.756-6.076-9.105-12.612-16.563-12.612
				c-10.931,0-17.519,9.156-18.381,18.21c-0.034,0.307-0.077,0.606-0.145,0.905c0-0.009,0.008-0.009,0.008-0.009
				c0.017,0-0.188,2.193,0.785,5.99c1.673,6.639,5.615,12.732,11.409,17.604l30.66,25.711l30.686-25.728
				c5.76-4.855,9.702-10.94,11.383-17.587C213.932,171.944,213.651,169.725,213.651,169.7z"/>
			<path d="M365.848,150.858c-7.458,0-13.815,6.537-16.563,12.604c-1.382,3.055-4.42,5.009-7.774,5.009
				c-3.345,0-6.391-1.954-7.765-5c-2.756-6.076-9.114-12.612-16.572-12.612c-10.931,0-17.519,9.156-18.381,18.21
				c-0.026,0.307-0.077,0.606-0.137,0.905v-0.009c0.017,0-0.179,2.193,0.785,5.99c1.681,6.639,5.623,12.732,11.409,17.604
				l30.66,25.711l30.686-25.728c5.76-4.855,9.702-10.94,11.383-17.587c1.024-4.011,0.742-6.229,0.734-6.255
				C383.367,160.014,376.779,150.858,365.848,150.858z"/>
			<path d="M206.339,358.692c11.878,16.145,29.389,25.31,49.664,25.31c20.412,0,38.033-9.293,49.911-25.651
				C272.805,369.717,238.603,369.836,206.339,358.692z"/>
			<path d="M256.001,264.533c10.419,0,17.067-5.052,17.067-8.533c0-3.482-6.647-8.533-17.067-8.533s-17.067,5.052-17.067,8.533
				C238.934,259.481,245.582,264.533,256.001,264.533z"/>
		</g>
	</g>
</g>
<g>
</g>
<g>
</g>
<g>
</g>
<g>
</g>
<g>
</g>
<g>
</g>
<g>
</g>
<g>
</g>
<g>
</g>
<g>
</g>
<g>
</g>
<g>
</g>
<g>
</g>
<g>
</g>
<g>
</g>
</svg>
