<svg version="1.1" xmlns="http://www.w3.org/2000/svg" xmlns:xlink="http://www.w3.org/1999/xlink" x="0px" y="0px" viewBox="0 0 1000 1000" enable-background="new 0 0 1000 1000" xml:space="preserve">
<g><path d="M747.3,362v240.6c0,119.2-111,216.1-247.3,216.1c-136.4,0-247.3-96.9-247.3-216.1V362h-51.4v240.6c0,139.7,120.3,254.6,273.1,266.4v69.6h-99.8V990H625v-51.4h-99.3V869c152.7-11.7,273.1-126.6,273.1-266.4V362H747.3z"/><path d="M500,719.5c103.5,0,187.7-84.2,187.7-187.7V197.7C687.7,94.2,603.5,10,500,10c-103.5,0-187.7,84.2-187.7,187.7v334.1C312.3,635.3,396.5,719.5,500,719.5z M500,668.1c-52,0-97.3-29.3-120.2-72.3h240.4C597.2,638.8,552,668.1,500,668.1z M635.6,544.4H364.4c-0.4-4.1-0.6-8.3-0.6-12.6v-52.4h272.5v52.4C636.2,536,636,540.2,635.6,544.4z M500,61.4c75.1,0,136.2,61.1,136.2,136.3v230.3H363.7V197.7C363.7,122.5,424.9,61.4,500,61.4z"/></g>
</svg>